<svg width="81" height="81" viewBox="0 0 81 81" fill="none" xmlns="http://www.w3.org/2000/svg">
<path fill-rule="evenodd" clip-rule="evenodd" d="M42.8728 0.639893H37.1585V25.9411L27.6805 2.48222L22.3823 4.62283L32.1058 28.6895L13.7517 10.3353L9.71107 14.3759L27.3027 31.9675L4.50527 22.0071L2.21746 27.2435L26.3398 37.7827H0.015625V43.4971H26.3398L2.21747 54.0363L4.50527 59.2727L27.3027 49.3123L9.71107 66.9039L13.7517 70.9443L32.1058 52.5903L22.3823 76.6571L27.6805 78.7975L37.1585 55.3387V80.6399H42.8728V55.3387L52.3508 78.7975L57.6488 76.6571L47.9256 52.5903L66.2796 70.9443L70.32 66.9039L52.7284 49.3123L75.526 59.2727L77.8136 54.0363L53.6916 43.4971H80.0156V37.7827H53.6912L77.8136 27.2435L75.526 22.0071L52.7284 31.9675L70.32 14.3759L66.2796 10.3353L47.9256 28.6894L57.6488 4.62283L52.3508 2.48222L42.8728 25.9411V0.639893Z" fill="#F66742"/>
</svg>
